<svg version="1.2" xmlns="http://www.w3.org/2000/svg" viewBox="0 0 2048 2048" width="530" height="350">
	<style>
		.s0 { fill: #101214 } 
		.s1 { opacity: .04;fill: #ffffff } 
	</style>
	<g id="Layer 1">
		<path class="s0" d="m372.24 810.15c20.31-1.98 65.72-0.81 87.65-0.8h173.54c-8.64 33.38-19.17 79.76-24.95 113.88-7.76 0.53-17.44 0.39-25.26 0.25-47.73-0.87-96.42 1.31-144.05-0.31 2.3-14.82 8.17-31.79 10.73-47.47-8.7 4.56-21.46 13.24-29.98 18.68q-33.83 21.64-67.22 43.95c-10.06 6.58-42.89 26.79-49.55 33.01 12.38 12.32 29.12 25.31 42.68 37.7 18.1 16.56 37.93 34.7 57.55 49.43 2.58 1.93 2.29 1.58 4.42 1.05 4.37-8.25 14.92-57.81 17.23-69.48 8.69-0.64 22.43-0.28 31.59-0.34l61.04-0.37q26.26-0.22 52.52 0.05c-1.79 10.88-7.16 29.66-9.79 41.32q-7.94 36.78-14.97 73.74c-51.38-1.82-111.12-0.43-162.94-0.09-5.2 19.09-9.81 44.67-14.02 64.62-4.43 20.97-10.89 47.96-13.74 68.68-10.71 0.8-33.48 0.11-44.86 0.09q-47.93-0.31-95.86 0.28c3.59-19.16 8.37-38.07 12.24-57.18q16.25-83.19 33.87-166.08 7.53-36.19 14.7-72.45c13.28-67.63 17.95-118.34 97.43-132.16z"/>
		<path class="s0" d="m1004.1 1008.16c68.74-3.87 104.03 45 82.97 109.66-44.37 0.98-89.26-1.39-134.29 0.18 2.83 7.82 4.95 14.45 11.42 20.11 17.82 15.56 41.37 6.33 54.81-9.54 20.01 0.88 42.49 0.41 62.75 0.64-27.84 48.28-84.86 79.87-139.92 59.84-17.45-6.3-31.61-19.39-39.27-36.29-11.04-24.27-6.94-48.18 2.23-72.04 1.86-3.93 4.28-8.22 4.9-12.42l-1.54-1.13c-10.36-1.77-21.03-0.19-30.43 4.5-31.2 15.65-33.27 54.33-41.61 84.12-3.02 10.81-5.02 21.94-8.52 32.67l-0.39 1.16c-19.36 0.58-39.87 0.2-59.32 0.14l26.52-100.82c5.69-22.38 12.2-53.97 20.55-75.18 17.06-0.05 34.87-0.36 51.85 0.34-0.59 7.01-2.64 16.1-3.45 24.24 18.62-22.46 35.07-26.91 63.32-28.15-5.67 17.97-10.64 37.34-16.3 55.76 6.15-6.16 11.95-14.32 18.46-20.83 23.2-23.21 43.56-32.49 75.26-36.96zm2.06 69.16c5.31 0.12 20.56 1.06 24.77-0.5 8.48-18.31-26.08-22.24-37.36-20.8-10.19 3.08-23.99 9.01-28.55 19.28l0.62 1.58c8.97 1.14 30.57 0.5 40.52 0.44z"/>
		<path class="s0" d="m1206.91 925.8l2.36 0.2c0.72 2.87-24.28 87.03-27.12 97.48 27.54-17.89 67.24-23.55 94.56-1.95 40.23 31.79 22.63 101.87-5.08 135.99-18.21 22.41-43.82 34.41-72.31 37.03-29.33 1.15-33.71-4.98-56.35-20.23-2.93 2.81-4.13 10.78-5.11 15.19-18.63 0.63-40.27 0.26-59.1 0.36 2.98-12.54 7.78-27.07 11.17-39.88q11.32-44.33 23.31-88.48c8.29-29.95 23.06-72.31 22.45-101.93 26.4-13.75 44.04-22.11 71.22-33.78zm-6.25 214.08c51.15-17.77 49.34-84.56-2.03-77.9-8.42 2.84-11.33 4.69-18.76 9.41-21.02 13.38-28.81 52.98-2.61 65.6 7.27 3.52 15.5 4.53 23.4 2.89z"/>
		<path class="s0" d="m1399.42 1008.21c26.52-1.89 40.14 0.37 60.74 17.81l2.93-12.38q30.41-0.24 60.83 0.05l-26.62 105.37c-6.11 23.28-13.45 47.27-18.64 70.65-14.34 0.1-37.89 1.04-52.43-0.83-1.29-0.17-1.34-1.56-1.96-3.25 0.03-3.31 0.44-7.29-0.89-10.15-2.74-0.14-10.48 5.28-13.3 7.02-22.87 14.12-53.64 17.48-77.01 1.86-44.48-29.72-31.5-95.89-5.72-133.69 17.54-25.72 42.26-37.25 72.07-42.46zm3.2 132.81c47.4-10.76 60.13-81.79 5.1-79.91-51.19 8.46-56.34 81.53-5.1 79.91z"/>
		<path class="s0" d="m674.57 1008.17q1.54-0.09 3.08-0.15c22.89-0.89 36.67 3.81 53.39 19.35 1.52-4.49 2.89-9.5 4.24-14.08l59.73 0.64c-17.23 55.96-28.93 119.47-45.66 175.78-15.74 0.22-35.06 0.9-50.86-0.17-2.55-0.18-2.74-1.52-4.09-3.61 0.24-3.37 1.08-7.2-0.33-10.03-2.4 0.53-9.09 4.08-11.16 5.52-37.41 26.07-92.92 12.39-104.61-34.45-12.45-49.89 13.55-107.34 60.49-129.59 11.68-5.53 22.96-7.44 35.78-9.21zm1.2 131.77c47.07-12.2 56.01-80.3 1.65-78.9-46.38 8.38-61.74 80.92-1.65 78.9z"/>
		<path class="s0" d="m1746.22 960.49c17.19-8.55 59.14-30.84 75.22-36.61q-12.55 45.08-24.53 90.32c-4.1 15.57-9.43 34.41-12.49 50 11.19-9.95 49.83-42.55 61.85-50.85 19.74 0.08 57.64-0.75 75.91 0.91q-37.14 26.36-73.34 54.02c-8.13 6.15-19.56 13.98-27.13 20.18 14.05 32.63 36.1 67.65 50.51 101.01-21.7 0.08-49.61 0.91-70.93-0.08-7.83-16.03-20.05-41.25-26.44-57.53-2.75-6.73-4.35-10.52-7.89-16.84l-3.1 11.49c-4.67 17.26-11.91 47.4-17.52 63.17-7.88 0.06-52.1 1.25-56.23-1.1 0.78-8.91 8.85-36.73 11.47-46.54l23.4-87.94c7.04-25.61 20.77-68.84 21.24-93.61z"/>
		<path class="s0" d="m1618.71 1008.17c29.72-1.32 58.81 3.16 75.15 31.02 5.56 9.48 11.75 27.49 9.09 38.17-3.47 3.4-8.65 2.85-13.4 2.88-13.53 0.1-27.14 0.03-40.66 0-1.97-2.99-4.71-7.98-7.06-10.46-33.92-35.59-85.17 22.86-63.37 58.33 10.11 16.44 28.2 16.57 43.61 7.22 5.43-3.29 10.92-8.01 16.3-11.72 8.35-0.11 51.88-1.45 56.78 0.78l0.38 1.76c-20.66 35.41-49.32 60.77-91.12 67.2-20.81 3.24-45.48 1.27-62.32-12.55-56.2-46.11-23.7-135.44 36.03-161.86 15.37-6.79 24.74-8.58 40.59-10.77z"/>
		<path class="s1" d="m1793.96 1073.02c3.54 6.32 5.14 10.11 7.89 16.84-6.92-2.02-5.77-0.41-10.99-5.35z"/>
	</g>
</svg>