<svg version="1.2" xmlns="http://www.w3.org/2000/svg" viewBox="0 0 802.5714285714286 530" width="454.52830188679246" height="300">
	<style>
		.s0 { fill: #ffffff } 
		.s1 { opacity: .04;fill: #ffffff } 
	</style>
	<g id="Layer 1">
		<path class="s0" d="m232.62 209.66c5.25-0.51 17-0.21 22.68-0.21h44.91c-2.24 8.64-4.96 20.64-6.46 29.47-2 0.14-4.51 0.1-6.53 0.07-12.36-0.23-24.96 0.34-37.28-0.08 0.59-3.84 2.11-8.23 2.77-12.29-2.25 1.18-5.55 3.43-7.75 4.84q-8.76 5.6-17.4 11.37c-2.6 1.7-11.1 6.93-12.82 8.54 3.2 3.19 7.53 6.55 11.04 9.76 4.69 4.28 9.82 8.98 14.9 12.79 0.66 0.5 0.59 0.41 1.14 0.27 1.13-2.13 3.86-14.96 4.46-17.98 2.25-0.16 5.8-0.07 8.17-0.09l15.8-0.09q6.8-0.06 13.59 0.01c-0.46 2.82-1.85 7.68-2.53 10.69q-2.06 9.52-3.88 19.09c-13.29-0.47-28.75-0.11-42.16-0.03-1.35 4.94-2.54 11.56-3.63 16.73-1.15 5.42-2.82 12.41-3.56 17.77-2.77 0.21-8.66 0.03-11.61 0.02q-12.4-0.08-24.8 0.08c0.93-4.96 2.16-9.86 3.16-14.8q4.21-21.53 8.77-42.98 1.95-9.37 3.8-18.75c3.44-17.5 4.65-30.63 25.22-34.2z"/>
		<path class="s0" d="m396.14 260.9c17.78-1 26.92 11.65 21.47 28.38-11.48 0.25-23.1-0.36-34.76 0.05 0.74 2.02 1.29 3.74 2.96 5.2 4.61 4.03 10.71 1.64 14.18-2.47 5.18 0.23 11 0.11 16.24 0.17-7.2 12.49-21.96 20.67-36.21 15.48-4.51-1.63-8.18-5.01-10.16-9.39-2.86-6.28-1.8-12.47 0.58-18.64 0.48-1.02 1.11-2.13 1.27-3.22l-0.4-0.29c-2.68-0.46-5.44-0.05-7.88 1.17-8.07 4.05-8.61 14.06-10.77 21.77-0.78 2.79-1.29 5.67-2.2 8.45l-0.1 0.3c-5.01 0.15-10.32 0.05-15.35 0.04l6.86-26.09c1.47-5.8 3.16-13.97 5.32-19.46 4.41-0.01 9.02-0.09 13.42 0.09-0.16 1.81-0.69 4.16-0.9 6.27 4.82-5.81 9.08-6.96 16.39-7.28-1.47 4.65-2.75 9.66-4.22 14.43 1.59-1.6 3.09-3.71 4.78-5.39 6-6.01 11.27-8.41 19.48-9.57zm0.53 17.9c1.37 0.03 5.32 0.27 6.41-0.13 2.19-4.74-6.75-5.76-9.67-5.38-2.64 0.79-6.21 2.33-7.39 4.99l0.16 0.4c2.32 0.3 7.91 0.13 10.49 0.12z"/>
		<path class="s0" d="m448.62 239.59l0.61 0.05c0.19 0.74-6.28 22.52-7.02 25.23 7.13-4.63 17.4-6.1 24.47-0.51 10.42 8.23 5.86 26.36-1.31 35.19-4.71 5.8-11.34 8.91-18.71 9.59-7.59 0.29-8.73-1.29-14.59-5.24-0.75 0.73-1.06 2.79-1.32 3.93-4.82 0.17-10.42 0.07-15.29 0.1 0.77-3.25 2.01-7.01 2.89-10.33q2.93-11.47 6.03-22.89c2.15-7.75 5.97-18.72 5.81-26.38 6.83-3.56 11.4-5.72 18.43-8.74zm-1.62 55.4c13.24-4.6 12.77-21.88-0.52-20.16-2.18 0.73-2.93 1.21-4.86 2.43-5.44 3.47-7.45 13.71-0.67 16.98 1.88 0.91 4.01 1.17 6.05 0.75z"/>
		<path class="s0" d="m498.44 260.91c6.86-0.49 10.39 0.1 15.72 4.61l0.76-3.2q7.87-0.06 15.74 0.01l-6.89 27.27c-1.58 6.03-3.48 12.23-4.82 18.28-3.71 0.03-9.81 0.27-13.57-0.21-0.34-0.04-0.35-0.4-0.51-0.84 0.01-0.86 0.12-1.89-0.23-2.63-0.71-0.03-2.71 1.37-3.44 1.82-5.92 3.65-13.88 4.52-19.93 0.48-11.51-7.69-8.15-24.82-1.48-34.6 4.54-6.65 10.94-9.64 18.65-10.99zm0.83 34.37c12.27-2.78 15.56-21.16 1.32-20.68-13.25 2.19-14.58 21.1-1.32 20.68z"/>
		<path class="s0" d="m310.86 260.9q0.4-0.02 0.79-0.04c5.93-0.23 9.49 0.99 13.82 5.01 0.39-1.16 0.75-2.46 1.1-3.64l15.46 0.16c-4.46 14.49-7.49 30.92-11.82 45.49-4.07 0.06-9.07 0.24-13.16-0.04-0.66-0.05-0.71-0.39-1.06-0.93 0.06-0.88 0.28-1.87-0.09-2.6-0.62 0.14-2.35 1.06-2.88 1.43-9.69 6.75-24.05 3.2-27.08-8.92-3.22-12.91 3.51-27.78 15.66-33.53 3.02-1.43 5.94-1.93 9.26-2.39zm0.31 34.1c12.18-3.15 14.49-20.78 0.42-20.41-12 2.16-15.97 20.94-0.42 20.41z"/>
		<path class="s0" d="m588.19 248.56c4.45-2.21 15.3-7.98 19.46-9.47q-3.24 11.67-6.34 23.37c-1.06 4.03-2.44 8.91-3.24 12.94 2.9-2.57 12.9-11.01 16.01-13.16 5.11 0.02 14.92-0.19 19.64 0.24q-9.61 6.82-18.97 13.98c-2.11 1.59-5.07 3.62-7.03 5.22 3.64 8.45 9.35 17.51 13.08 26.14-5.62 0.02-12.84 0.24-18.36-0.02-2.03-4.15-5.19-10.67-6.84-14.89-0.71-1.74-1.13-2.72-2.04-4.36l-0.81 2.98c-1.21 4.47-3.08 12.27-4.53 16.35-2.04 0.01-13.48 0.32-14.55-0.29 0.2-2.3 2.29-9.5 2.97-12.04l6.05-22.76c1.82-6.63 5.38-17.82 5.5-24.23z"/>
		<path class="s0" d="m555.19 260.9c7.69-0.34 15.22 0.82 19.45 8.03 1.44 2.45 3.04 7.12 2.35 9.88-0.9 0.88-2.24 0.74-3.47 0.74-3.5 0.03-7.02 0.01-10.52 0-0.51-0.77-1.22-2.06-1.83-2.7-8.77-9.21-22.04 5.91-16.4 15.09 2.62 4.26 7.3 4.29 11.29 1.87 1.4-0.85 2.83-2.07 4.22-3.03 2.16-0.03 13.42-0.38 14.69 0.2l0.1 0.46c-5.35 9.16-12.76 15.72-23.58 17.39-5.39 0.83-11.77 0.32-16.13-3.25-14.54-11.93-6.13-35.05 9.33-41.89 3.97-1.76 6.4-2.22 10.5-2.79z"/>
		<path class="s1" d="m600.54 277.69c0.92 1.63 1.33 2.61 2.04 4.35-1.79-0.52-1.49-0.1-2.84-1.38z"/>
	</g>
</svg>