<svg version="1.2" xmlns="http://www.w3.org/2000/svg" viewBox="0 0 1799.0393168475366 599.6797722825121" width="1800" height="600">
	<style>
		.s0 { fill: #ffffff } 
		.s1 { opacity: .04;fill: #ffffff } 
	</style>
	<g id="Layer 1">
		<path class="s0" d="m165.99 72.41c21.3-2.09 68.93-0.85 91.93-0.85h182.04c-9.08 35.01-20.11 83.67-26.18 119.45-8.14 0.56-18.3 0.43-26.5 0.27-50.05-0.92-101.14 1.37-151.08-0.31 2.4-15.56 8.56-33.36 11.25-49.81-9.12 4.79-22.53 13.9-31.45 19.59q-35.48 22.71-70.52 46.11c-10.54 6.9-44.99 28.11-51.96 34.63 12.98 12.91 30.53 26.54 44.76 39.54 18.99 17.38 39.79 36.38 60.37 51.85 2.71 2.02 2.4 1.66 4.64 1.1 4.57-8.65 15.65-60.64 18.07-72.87 9.12-0.68 23.51-0.3 33.13-0.36l64.02-0.41q27.55-0.22 55.1 0.07c-1.89 11.41-7.51 31.11-10.27 43.33q-8.34 38.58-15.71 77.36c-53.89-1.91-116.54-0.45-170.9-0.09-5.47 20.02-10.29 46.85-14.71 67.76-4.66 22.01-11.43 50.33-14.41 72.05-11.23 0.85-35.13 0.11-47.05 0.09q-50.28-0.32-100.56 0.31c3.77-20.11 8.79-39.95 12.84-59.99q17.04-87.26 35.53-174.21 7.89-37.95 15.43-75.99c13.92-70.93 18.8-124.12 102.19-138.62z"/>
		<path class="s0" d="m828.76 280.11c72.09-4.08 109.12 47.19 87.02 115.02-46.53 1.03-93.63-1.46-140.86 0.18 2.98 8.2 5.2 15.17 11.99 21.09 18.67 16.32 43.38 6.66 57.48-9.99 21 0.91 44.58 0.42 65.83 0.67-29.21 50.64-89.01 83.77-146.78 62.76-18.29-6.61-33.15-20.33-41.18-38.06-11.59-25.46-7.28-50.55 2.34-75.56 1.95-4.13 4.48-8.63 5.13-13.03l-1.62-1.19c-10.84-1.86-22.05-0.2-31.92 4.71-32.72 16.43-34.87 57.01-43.64 88.25-3.16 11.35-5.27 23-8.92 34.25l-0.43 1.24c-20.31 0.6-41.8 0.2-62.2 0.13l27.82-105.73c5.96-23.5 12.77-56.63 21.54-78.86 17.89-0.07 36.58-0.38 54.38 0.33-0.61 7.38-2.76 16.9-3.61 25.45 19.53-23.56 36.79-28.23 66.42-29.53-5.94 18.83-11.16 39.16-17.1 58.49 6.45-6.48 12.53-15.02 19.36-21.86 24.35-24.34 45.69-34.07 78.95-38.76zm2.15 72.54c5.59 0.11 21.57 1.1 25.98-0.54 8.9-19.18-27.34-23.31-39.18-21.81-10.69 3.23-25.17 9.46-29.95 20.22l0.65 1.66c9.42 1.21 32.06 0.54 42.5 0.47z"/>
		<path class="s0" d="m1041.49 193.72l2.47 0.2c0.76 3.01-25.47 91.28-28.45 102.24 28.89-18.76 70.54-24.7 99.19-2.04 42.21 33.36 23.74 106.86-5.34 142.66-19.09 23.49-45.95 36.09-75.83 38.82-30.78 1.21-35.37-5.22-59.11-21.2-3.07 2.93-4.33 11.3-5.36 15.94-19.54 0.65-42.25 0.26-62 0.35 3.14-13.13 8.16-28.37 11.72-41.82q11.89-46.49 24.46-92.81c8.7-31.4 24.19-75.85 23.54-106.92 27.7-14.41 46.2-23.18 74.71-35.42zm-6.57 224.54c53.67-18.62 51.76-88.7-2.13-81.7-8.83 2.98-11.88 4.91-19.66 9.86-22.05 14.03-30.24 55.57-2.75 68.82 7.64 3.7 16.27 4.75 24.54 3.02z"/>
		<path class="s0" d="m1243.41 280.16c27.82-2 42.1 0.38 63.71 18.67l3.09-12.98q31.9-0.24 63.8 0.05l-27.93 110.53c-6.41 24.41-14.1 49.58-19.55 74.11-15.04 0.11-39.74 1.1-54.99-0.88-1.36-0.18-1.41-1.63-2.06-3.4 0.02-3.48 0.47-7.65-0.94-10.65-2.87-0.16-10.98 5.53-13.94 7.37-23.99 14.8-56.27 18.32-80.79 1.95-46.65-31.18-33.04-100.58-5.98-140.23 18.38-26.99 44.31-39.07 75.58-44.54zm3.36 139.31c49.72-11.29 63.08-85.8 5.36-83.83-53.71 8.87-59.11 85.51-5.36 83.83z"/>
		<path class="s0" d="m483.11 280.11q1.61-0.09 3.23-0.15c24-0.94 38.46 3.99 55.99 20.28 1.59-4.7 3.03-9.95 4.46-14.75l62.65 0.68c-18.09 58.68-30.35 125.3-47.9 184.37-16.52 0.22-36.78 0.94-53.35-0.18-2.67-0.18-2.87-1.59-4.28-3.79 0.25-3.54 1.12-7.55-0.36-10.51-2.51 0.56-9.53 4.28-11.7 5.78-39.25 27.35-97.46 13-109.73-36.13-13.06-52.35 14.22-112.6 63.44-135.93 12.26-5.81 24.1-7.81 37.55-9.67zm1.25 138.22c49.36-12.8 58.76-84.24 1.73-82.76-48.64 8.79-64.76 84.89-1.73 82.76z"/>
		<path class="s0" d="m1607.18 230.1c18.04-8.96 62.05-32.34 78.9-38.39q-13.16 47.27-25.73 94.73c-4.31 16.34-9.89 36.08-13.09 52.45 11.72-10.45 52.25-44.63 64.87-53.35 20.71 0.09 60.46-0.79 79.62 0.96q-38.96 27.64-76.93 56.67c-8.52 6.46-20.51 14.66-28.45 21.16 14.73 34.23 37.86 70.97 52.97 105.96-22.75 0.07-52.02 0.94-74.4-0.09-8.2-16.81-21.02-43.26-27.72-60.34-2.9-7.06-4.58-11.03-8.28-17.67l-3.25 12.06c-4.91 18.09-12.5 49.72-18.38 66.26-8.27 0.05-54.65 1.3-58.97-1.16 0.8-9.35 9.28-38.53 12.01-48.82l24.55-92.24c7.39-26.86 21.78-72.21 22.28-98.19z"/>
		<path class="s0" d="m1473.44 280.11c31.16-1.39 61.67 3.32 78.82 32.55 5.83 9.93 12.33 28.83 9.53 40.04-3.64 3.56-9.06 2.98-14.06 3-14.19 0.11-28.47 0.05-42.63 0-2.07-3.12-4.96-8.36-7.42-10.96-35.58-37.32-89.33 23.98-66.47 61.17 10.61 17.26 29.59 17.4 45.75 7.58 5.7-3.45 11.46-8.41 17.11-12.29 8.74-0.11 54.4-1.52 59.53 0.81l0.41 1.86c-21.68 37.15-51.74 63.73-95.58 70.48-21.81 3.41-47.71 1.34-65.37-13.16-58.95-48.37-24.86-142.07 37.79-169.78 16.12-7.13 25.96-9.01 42.59-11.3z"/>
		<path class="s1" d="m1915.35 343.13c5.34 9.54 7.76 15.28 11.91 25.44-10.45-3.05-8.72-0.61-16.59-8.07z"/>
	</g>
</svg>