<svg version="1.2" xmlns="http://www.w3.org/2000/svg" viewBox="0 163.99999999999997 802.5714285714288 206.00000000000003" width="1800" height="600">
	<style>
		.s0 { fill: #101214 } 
		.s1 { opacity: .04;fill: #ffffff } 
	</style>
	<g id="Layer 1">
		<path class="s0" d="m74.05 165.54c9.5-0.93 30.75-0.38 41.01-0.38h81.21c-4.05 15.62-8.97 37.33-11.68 53.29-3.63 0.25-8.16 0.19-11.82 0.12-22.33-0.41-45.12 0.61-67.4-0.14 1.07-6.94 3.82-14.88 5.02-22.22-4.07 2.14-10.05 6.2-14.03 8.74q-15.83 10.13-31.46 20.57c-4.7 3.08-20.07 12.54-23.18 15.45 5.79 5.76 13.62 11.84 19.97 17.64 8.47 7.75 17.75 16.23 26.93 23.13 1.21 0.9 1.07 0.74 2.07 0.49 2.04-3.86 6.98-27.05 8.06-32.51 4.07-0.3 10.49-0.13 14.78-0.16l28.56-0.18q12.29-0.1 24.58 0.03c-0.84 5.09-3.35 13.88-4.58 19.33q-3.72 17.21-7.01 34.51c-24.04-0.85-51.99-0.2-76.24-0.04-2.44 8.93-4.59 20.9-6.56 30.23-2.08 9.82-5.1 22.45-6.43 32.14-5.01 0.38-15.67 0.05-20.99 0.04q-22.43-0.14-44.86 0.14c1.68-8.97 3.92-17.82 5.73-26.76q7.6-38.93 15.85-77.72 3.52-16.93 6.88-33.9c6.21-31.64 8.39-55.37 45.59-61.84z"/>
		<path class="s0" d="m369.72 258.2c32.16-1.82 48.68 21.05 38.82 51.31-20.76 0.46-41.77-0.65-62.84 0.08 1.33 3.66 2.32 6.77 5.35 9.41 8.33 7.28 19.35 2.97 25.64-4.46 9.37 0.41 19.89 0.19 29.37 0.3-13.03 22.59-39.71 37.37-65.48 28-8.16-2.95-14.79-9.07-18.37-16.98-5.17-11.36-3.25-22.55 1.04-33.71 0.87-1.84 2-3.85 2.29-5.81l-0.72-0.53c-4.84-0.83-9.84-0.09-14.24 2.1-14.6 7.33-15.56 25.43-19.47 39.37-1.41 5.06-2.35 10.26-3.98 15.28l-0.19 0.55c-9.06 0.27-18.65 0.09-27.75 0.06l12.41-47.17c2.66-10.48 5.7-25.26 9.61-35.18 7.98-0.03 16.32-0.17 24.26 0.15-0.27 3.29-1.23 7.54-1.61 11.35 8.71-10.51 16.41-12.59 29.63-13.17-2.65 8.4-4.98 17.47-7.63 26.09 2.88-2.89 5.59-6.7 8.64-9.75 10.86-10.86 20.38-15.2 35.22-17.29zm0.96 32.36c2.49 0.05 9.62 0.49 11.59-0.24 3.97-8.56-12.2-10.4-17.48-9.73-4.77 1.44-11.23 4.22-13.36 9.02l0.29 0.74c4.2 0.54 14.3 0.24 18.96 0.21z"/>
		<path class="s0" d="m464.62 219.66l1.1 0.09c0.34 1.34-11.36 40.72-12.69 45.61 12.89-8.37 31.47-11.02 44.25-0.91 18.83 14.88 10.59 47.67-2.38 63.64-8.52 10.48-20.5 16.1-33.83 17.32-13.73 0.54-15.78-2.33-26.37-9.46-1.37 1.31-1.93 5.04-2.39 7.11-8.72 0.29-18.85 0.12-27.66 0.16 1.4-5.86 3.64-12.66 5.23-18.66q5.3-20.74 10.91-41.4c3.88-14.01 10.79-33.84 10.5-47.7 12.36-6.43 20.61-10.34 33.33-15.8zm-2.93 100.17c23.94-8.31 23.09-39.57-0.95-36.45-3.94 1.33-5.3 2.19-8.77 4.4-9.84 6.26-13.49 24.79-1.23 30.7 3.41 1.65 7.26 2.12 10.95 1.35z"/>
		<path class="s0" d="m554.7 258.22c12.41-0.89 18.78 0.17 28.42 8.33l1.38-5.79q14.23-0.11 28.46 0.02l-12.46 49.31c-2.86 10.89-6.29 22.12-8.72 33.06-6.71 0.05-17.73 0.49-24.53-0.39-0.61-0.08-0.63-0.73-0.92-1.52 0.01-1.55 0.21-3.41-0.42-4.75-1.28-0.07-4.9 2.47-6.22 3.29-10.7 6.6-25.1 8.17-36.04 0.87-20.81-13.91-14.74-44.87-2.67-62.56 8.2-12.04 19.77-17.43 33.72-19.87zm1.5 62.15c22.18-5.04 28.14-38.28 2.39-37.4-23.96 3.96-26.37 38.15-2.39 37.4z"/>
		<path class="s0" d="m215.52 258.2q0.72-0.04 1.44-0.07c10.71-0.42 17.16 1.78 24.98 9.05 0.71-2.1 1.35-4.44 1.99-6.58l27.95 0.3c-8.07 26.18-13.54 55.9-21.37 82.25-7.37 0.1-16.41 0.42-23.8-0.08-1.19-0.08-1.28-0.71-1.91-1.69 0.11-1.58 0.5-3.37-0.16-4.69-1.12 0.25-4.25 1.91-5.22 2.58-17.51 12.2-43.48 5.8-48.95-16.12-5.83-23.35 6.34-50.23 28.3-60.64 5.47-2.59 10.75-3.48 16.75-4.31zm0.56 61.66c22.02-5.71 26.21-37.58 0.77-36.92-21.7 3.92-28.89 37.87-0.77 36.92z"/>
		<path class="s0" d="m716.98 235.89c8.05-4 27.68-14.43 35.2-17.13q-5.87 21.09-11.48 42.26c-1.92 7.29-4.41 16.1-5.84 23.4 5.23-4.66 23.31-19.91 28.94-23.8 9.24 0.04 26.97-0.35 35.52 0.43q-17.38 12.33-34.32 25.28c-3.8 2.88-9.15 6.54-12.69 9.44 6.57 15.27 16.89 31.66 23.63 47.27-10.15 0.03-23.21 0.42-33.19-0.04-3.66-7.5-9.38-19.3-12.37-26.92-1.29-3.15-2.04-4.92-3.69-7.88l-1.45 5.38c-2.19 8.07-5.58 22.18-8.2 29.56-3.69 0.02-24.38 0.58-26.31-0.52 0.36-4.17 4.14-17.19 5.36-21.78l10.95-41.15c3.3-11.98 9.72-32.21 9.94-43.8z"/>
		<path class="s0" d="m657.32 258.2c13.9-0.62 27.51 1.48 35.16 14.52 2.6 4.43 5.5 12.86 4.25 17.86-1.62 1.59-4.04 1.33-6.27 1.34-6.33 0.05-12.7 0.02-19.02 0-0.92-1.39-2.21-3.73-3.31-4.89-15.87-16.65-39.85 10.7-29.65 27.29 4.73 7.7 13.2 7.76 20.41 3.38 2.54-1.54 5.11-3.75 7.63-5.48 3.9-0.05 24.27-0.68 26.56 0.36l0.18 0.83c-9.67 16.57-23.08 28.43-42.64 31.44-9.73 1.52-21.28 0.6-29.16-5.87-26.3-21.58-11.09-63.38 16.86-75.74 7.19-3.18 11.58-4.02 19-5.04z"/>
		<path class="s1" d="m854.46 286.31c2.38 4.26 3.46 6.82 5.31 11.35-4.66-1.36-3.89-0.27-7.4-3.6z"/>
	</g>
</svg>