<svg version="1.2" xmlns="http://www.w3.org/2000/svg" viewBox="414 118.00000000000001 266 275" width="480" height="496.24060150375936">
	<style>
		.s0 { fill: #101214 } 
	</style>
	<g id="Layer 1">
		<path class="s0" d="m516.33 123.71c12.49-1.22 40.42-0.5 53.9-0.5h106.74c-5.32 20.53-11.79 49.07-15.35 70.05-4.77 0.32-10.73 0.24-15.54 0.15-29.35-0.54-59.3 0.8-88.58-0.18 1.4-9.12 5.02-19.56 6.59-29.21-5.35 2.82-13.21 8.15-18.44 11.49q-20.8 13.32-41.35 27.04c-6.17 4.05-26.38 16.48-30.46 20.3 7.61 7.58 17.9 15.57 26.24 23.19 11.14 10.19 23.33 21.33 35.4 30.4 1.59 1.18 1.41 0.97 2.72 0.65 2.68-5.08 9.17-35.56 10.59-42.73 5.35-0.4 13.79-0.18 19.43-0.21l37.54-0.24q16.15-0.13 32.31 0.04c-1.11 6.69-4.41 18.24-6.02 25.4q-4.89 22.63-9.22 45.36c-31.59-1.11-68.33-0.26-100.21-0.05-3.2 11.74-6.03 27.47-8.62 39.73-2.73 12.91-6.7 29.51-8.45 42.25-6.58 0.5-20.59 0.06-27.59 0.05q-29.48-0.18-58.96 0.19c2.21-11.79 5.15-23.43 7.53-35.18q9.99-51.17 20.83-102.15 4.63-22.25 9.05-44.56c8.16-41.58 11.02-72.77 59.92-81.28z"/>
	</g>
</svg>