<?xml version="1.0" encoding="UTF-8"?>
<svg version="1.1" xmlns="http://www.w3.org/2000/svg" width="848" height="294">
<path d="M0 0 C279.84 0 559.68 0 848 0 C848 97.02 848 194.04 848 294 C568.16 294 288.32 294 0 294 C0 196.98 0 99.96 0 0 Z " fill="#FEFEFE" transform="translate(0,0)"/>
<path d="M0 0 C52.8 0 105.6 0 160 0 C158.93422131 8.52622951 158.93422131 8.52622951 156.875 12.921875 C155.7710964 15.54364604 154.99381727 18.2094599 154.1875 20.9375 C151.77393994 28.72985104 148.86431532 36.36182583 146 44 C115.97 44 85.94 44 55 44 C56.12520104 34.99839169 56.12520104 34.99839169 57.375 31.7890625 C57.63796875 31.10199219 57.9009375 30.41492188 58.171875 29.70703125 C58.44515625 29.01996094 58.7184375 28.33289063 59 27.625 C59.27328125 26.91472656 59.5465625 26.20445313 59.828125 25.47265625 C60.80892401 22.93892546 61.78422841 20.43154319 63 18 C62.48695313 18.20753906 61.97390625 18.41507813 61.4453125 18.62890625 C54.90841917 21.2590704 48.34500094 23.81832548 41.77392578 26.36157227 C37.8721006 27.87397105 33.9797371 29.40630496 30.09765625 30.96875 C24.02281769 33.40572872 17.89692996 35.70429544 11.76757812 38 C6.75722206 39.89321203 1.84855743 41.90631954 -3.00756836 44.16796875 C-4.9877226 44.99487301 -6.90789622 45.53606435 -9 46 C-7.42773348 50.04432412 -4.54822086 52.50566362 -1.375 55.3125 C-0.83157959 55.80177979 -0.28815918 56.29105957 0.27172852 56.79516602 C3.75579254 59.92374494 7.28274823 63.00246631 10.8203125 66.0703125 C13.68925821 68.61020351 16.50073846 71.2096215 19.3125 73.8125 C19.86518555 74.32393555 20.41787109 74.83537109 20.98730469 75.36230469 C22.10514323 76.3968099 23.22298177 77.4313151 24.34082031 78.46582031 C26.95080765 80.87917529 29.56543216 83.28727574 32.1875 85.6875 C33.50814453 86.89986328 33.50814453 86.89986328 34.85546875 88.13671875 C36.85782466 90.03267943 36.85782466 90.03267943 39 91 C39.103125 90.01515625 39.20625 89.0303125 39.3125 88.015625 C39.93304774 83.67616088 41.39415483 79.81006137 43 75.75 C43.54196429 74.34907344 44.08364231 72.94803608 44.625 71.546875 C45.305625 69.79117188 45.305625 69.79117188 46 68 C46.495 66.515 46.495 66.515 47 65 C46.13375 64.7525 45.2675 64.505 44.375 64.25 C40.80481983 62.92771105 38.05577189 61.25545068 35 59 C35 58.67 35 58.34 35 58 C62.72 58 90.44 58 119 58 C118.33830623 61.30846886 117.70329705 64.11946018 116.625 67.25 C116.356875 68.03761719 116.08875 68.82523437 115.8125 69.63671875 C115.544375 70.41660156 115.27625 71.19648438 115 72 C112.78871754 78.49564222 110.72755343 85.03296716 108.71337891 91.59204102 C107.10767502 96.78464995 107.10767502 96.78464995 106 99 C71.35 99.495 71.35 99.495 36 100 C35.01 103.3 34.02 106.6 33 110 C32.05219091 112.35540643 31.10324583 114.71040429 30.13769531 117.05859375 C28.72549087 120.70971803 27.49261332 124.40571435 26.2734375 128.125 C26.0373175 128.84445801 25.80119751 129.56391602 25.55792236 130.30517578 C24.57745975 133.30168303 23.60165402 136.29966286 22.63085938 139.29931641 C21.91275661 141.51378238 21.18732581 143.72574052 20.4609375 145.9375 C20.24319672 146.6176416 20.02545593 147.2977832 19.80111694 147.99853516 C18.84204952 150.90702098 18.19704654 152.80295346 16 155 C13.177948 155.24050903 13.177948 155.24050903 9.53076172 155.22705078 C8.86722687 155.22734283 8.20369202 155.22763489 7.52005005 155.22793579 C5.32313028 155.22654056 3.12654814 155.21097067 0.9296875 155.1953125 C-0.59202896 155.19158305 -2.11374781 155.18873576 -3.63546753 155.18673706 C-7.64356092 155.17909523 -11.6515097 155.15944213 -15.6595459 155.1373291 C-19.74827112 155.11688244 -23.83701966 155.10773788 -27.92578125 155.09765625 C-35.95058724 155.07619667 -43.97527564 155.04205421 -52 155 C-51.38873065 150.36910961 -50.57817373 146.45946631 -48.7890625 142.140625 C-45.59888982 134.12735158 -42.99204241 125.96321118 -40.375 117.75 C-39.89358449 116.24728195 -39.41181512 114.74467723 -38.9296875 113.2421875 C-38.23402354 111.07418455 -37.53842453 108.90616266 -36.84385681 106.73780823 C-34.72977315 100.14191662 -32.61639013 93.55063117 -30.1875 87.0625 C-28.44865532 82.31944397 -26.82788234 77.54442194 -25.23828125 72.75 C-24.97744751 71.96544937 -24.71661377 71.18089874 -24.44787598 70.37257385 C-23.63112166 67.91531268 -22.81544906 65.4576946 -22 63 C-21.49507405 61.47907259 -20.99011081 59.95815756 -20.48510742 58.43725586 C-20.23975754 57.69829575 -19.99440765 56.95933563 -19.74162292 56.19798279 C-18.74494521 53.19683512 -17.74757687 50.19591726 -16.75 47.19506836 C-16.2494643 45.68841028 -15.74946538 44.18157378 -15.25 42.67456055 C-12.51707582 34.43041719 -9.75008755 26.19970499 -6.875 18.00390625 C-6.64554687 17.34615707 -6.41609375 16.6884079 -6.1796875 16.01072693 C-4.26797069 10.59944313 -2.13715096 5.3428774 0 0 Z " fill="#383836" transform="translate(366,61)"/>
<path d="M0 0 C1.08174162 3.36541838 0.92538169 4.29847322 0 8 C32.67 8.495 32.67 8.495 66 9 C66 9.33 66 9.66 66 10 C43.56 10 21.12 10 -2 10 C-1 3 -1 3 0 0 Z " fill="#7C7C7B" transform="translate(316,206)"/>
</svg>
